<?xml version="1.0" standalone="no"?>
<!DOCTYPE svg PUBLIC "-//W3C//DTD SVG 20010904//EN"
 "http://www.w3.org/TR/2001/REC-SVG-20010904/DTD/svg10.dtd">
<svg version="1.0" xmlns="http://www.w3.org/2000/svg"
 width="700.000000pt" height="700.000000pt" viewBox="0 0 700.000000 700.000000"
 preserveAspectRatio="xMidYMid meet">
<metadata>
Created by potrace 1.11, written by Peter Selinger 2001-2013
</metadata>
<g transform="translate(0.000000,700.000000) scale(0.100000,-0.100000)"
fill="#000000" stroke="none">
<path d="M1747 6202 l-1747 -797 2 -1879 3 -1879 1748 -823 1747 -824 1748
824 1747 823 3 1879 2 1879 -1739 792 c-956 436 -1745 795 -1752 797 -8 3
-800 -354 -1762 -792z m3277 -126 c850 -391 1543 -713 1539 -717 -7 -6 -3070
-1365 -3091 -1371 -15 -5 -3081 1356 -3074 1364 11 12 1734 825 2267 1071 270
124 558 257 640 295 83 39 155 70 162 69 6 -1 707 -321 1557 -711z m-3223
-1641 l1584 -704 3 -591 c2 -560 1 -591 -15 -586 -10 3 -724 320 -1588 704
l-1570 699 -3 592 c-1 325 0 591 2 591 2 0 716 -317 1587 -705z m4987 113 l-3
-591 -435 -194 c-239 -106 -436 -193 -437 -193 -2 0 -3 86 -3 190 0 120 -4
190 -10 190 -5 0 -325 -140 -710 -311 l-700 -311 0 -197 0 -196 -423 -187
c-232 -103 -430 -190 -440 -194 -16 -6 -17 25 -15 585 l3 592 1580 704 c869
387 1583 704 1588 704 4 1 6 -265 5 -591z m-4925 -1507 c835 -368 1521 -671
1523 -674 2 -2 3 -472 2 -1044 l-3 -1041 -1585 749 -1585 749 -3 994 -2 995
67 -29 c38 -16 751 -330 1586 -699z m4925 -760 l-3 -501 -1585 -749 -1585
-749 -3 1041 c-1 572 0 1042 2 1044 6 7 860 383 869 383 4 0 7 -92 7 -205 0
-113 3 -205 8 -205 4 0 322 139 707 308 l700 308 5 214 5 214 435 193 435 192
3 -494 c1 -271 1 -719 0 -994z m-1120 836 c-7 -5 -223 -104 -480 -221 l-468
-214 0 292 0 291 478 217 477 217 3 -287 c2 -225 0 -289 -10 -295z"/>
</g>
</svg>
