<?xml version="1.0" encoding="UTF-8"?>
<svg width="59px" height="59px" viewBox="0 0 59 59" version="1.1" xmlns="http://www.w3.org/2000/svg" xmlns:xlink="http://www.w3.org/1999/xlink">
    <!-- Generator: Sketch 47.1 (45422) - http://www.bohemiancoding.com/sketch -->
    <title>logo</title>
    <desc>Created with Sketch.</desc>
    <defs>
        <linearGradient x1="50%" y1="0%" x2="50%" y2="97.2138074%" id="linearGradient-1">
            <stop stop-color="#7CC3C3" offset="0%"></stop>
            <stop stop-color="#9DCDB3" offset="100%"></stop>
        </linearGradient>
    </defs>
    <g id="Page-1" stroke="none" stroke-width="1" fill="none" fill-rule="evenodd">
        <g id="A4" transform="translate(-269.000000, -126.000000)">
            <g id="logo" transform="translate(258.000000, 115.000000)">
                <path d="M40,0 C62.091,0 80,17.909 80,40 C80,62.091 62.091,80 40,80 C17.909,80 0,62.091 0,40 C0,17.909 17.909,0 40,0 Z" id="Shape" fill-rule="nonzero"></path>
                <polygon id="Path-2" stroke="#979797" fill="url(#linearGradient-1)" points="12 25.5 12 55 40.5 69 69 55 69 25.5 40.5 12"></polygon>
                <path d="M40.5,11 L11,24.444782 L11,56.0968361 L40.5,70 L70,56.0968361 L70,24.444782 L40.5,11 Z M68.2475248,36.6472086 L60.7832783,39.9669504 L60.7832783,36.6767527 L48.840484,41.9756522 L48.840484,45.2785973 L41.3762376,48.5980392 L41.3762376,38.5684777 L68.2475248,26.6176471 L68.2475248,36.6472086 Z M58.9009901,38.7647059 L58.9009901,43.7144017 L50.7227723,47.4411765 L50.7227723,42.4914807 L58.9009901,38.7647059 Z M12.7524752,26.6176471 L39.6237624,38.5684777 L39.6237624,48.5980392 L12.7524752,36.6472086 L12.7524752,26.6176471 Z M66.4950495,24.7987826 L40.2079208,36.4509804 L13.9207921,24.7987826 L40.2079208,12.7352941 L66.4950495,24.7987826 Z M12.7524752,38.1862745 L39.6237624,50.0410796 L39.6237624,67.6862745 L12.7524752,54.9946649 L12.7524752,38.1862745 Z M41.3762376,67.6862745 L41.3762376,50.0410198 L48.840484,46.7481177 L48.840484,50.3092422 L60.7832783,45.0529462 L60.7832783,41.4793254 L68.2475248,38.1862745 L68.2475248,54.9945801 L41.3762376,67.6862745 Z" id="Shape-Copy" fill="#4A4A4A" fill-rule="nonzero"></path>
            </g>
        </g>
    </g>
</svg>