<?xml version="1.0" encoding="UTF-8"?>
<svg width="111px" height="111px" viewBox="0 0 111 111" version="1.1" xmlns="http://www.w3.org/2000/svg" xmlns:xlink="http://www.w3.org/1999/xlink">
    <!-- Generator: Sketch 47.1 (45422) - http://www.bohemiancoding.com/sketch -->
    <title>logo</title>
    <desc>Created with Sketch.</desc>
    <defs>
        <linearGradient x1="50%" y1="0%" x2="50%" y2="97.2138074%" id="linearGradient-1">
            <stop stop-color="#7CC3C3" offset="0%"></stop>
            <stop stop-color="#9DCDB3" offset="100%"></stop>
        </linearGradient>
    </defs>
    <g id="Page-1" stroke="none" stroke-width="1" fill="none" fill-rule="evenodd">
        <g id="A4" transform="translate(-244.000000, -101.000000)">
            <g id="logo" transform="translate(223.000000, 80.000000)">
                <path d="M75.5,0 C117.196763,0 151,33.8032375 151,75.5 C151,117.196763 117.196763,151 75.5,151 C33.8032375,151 0,117.196763 0,75.5 C0,33.8032375 33.8032375,0 75.5,0 Z" id="Shape" fill-rule="nonzero"></path>
                <polygon id="Path-2" stroke="#979797" fill="url(#linearGradient-1)" points="23 48.5789474 23 104.473684 77 131 131 104.473684 131 48.5789474 77 23"></polygon>
                <path d="M76.5,21 L21,46.2944204 L21,105.8432 L76.5,132 L132,105.8432 L132,46.2944204 L76.5,21 Z M128.70297,69.251528 L114.660066,75.497144 L114.660066,69.3071111 L92.1914191,79.276227 L92.1914191,85.4902424 L78.1485149,91.7352941 L78.1485149,72.866119 L128.70297,50.3823529 L128.70297,69.251528 Z M111.118812,73.2352941 L111.118812,82.5474336 L95.7326733,89.5588235 L95.7326733,80.246684 L111.118812,73.2352941 Z M24.2970297,50.3823529 L74.8514851,72.866119 L74.8514851,91.7352941 L24.2970297,69.251528 L24.2970297,50.3823529 Z M125.405941,46.9604215 L75.950495,68.8823529 L26.4950495,46.9604215 L75.950495,24.2647059 L125.405941,46.9604215 Z M24.2970297,72.1470588 L74.8514851,94.4501668 L74.8514851,127.647059 L24.2970297,103.769624 L24.2970297,72.1470588 Z M78.1485149,127.647059 L78.1485149,94.4500543 L92.1914191,88.2549333 L92.1914191,94.9546761 L114.660066,85.0657124 L114.660066,78.3424597 L128.70297,72.1470588 L128.70297,103.769464 L78.1485149,127.647059 Z" id="Shape-Copy" fill="#4A4A4A" fill-rule="nonzero"></path>
            </g>
        </g>
    </g>
</svg>